<svg data-v-423bf9ae="" xmlns="http://www.w3.org/2000/svg" viewBox="0 0 320 90" class="iconLeftSlogan"><!----><!----><!----><g data-v-423bf9ae="" id="e52463af-b869-4a86-8de4-f75d774ac8d5" fill="#041F57" transform="matrix(5.639097690582275,0,0,5.639097690582275,136.50375366210938,-19.28571319580078)"><path d="M8.40 14.06L8.40 3.42L5.99 3.42L5.99 7.52L3.04 7.52L3.04 3.42L0.62 3.42L0.62 14.06L3.04 14.06L3.04 9.94L5.99 9.94L5.99 14.06ZM14.10 14.06L14.10 6.09L16.53 6.09L16.53 3.42L9.25 3.42L9.25 6.09L11.69 6.09L11.69 14.06ZM22.71 14.06L25.38 3.42L22.78 3.42L21.14 10.58L19.60 3.42L16.86 3.42L19.43 14.06ZM32.37 14.06L32.37 11.38L28.52 11.38L28.52 3.42L26.10 3.42L26.10 14.06Z"></path></g><defs data-v-423bf9ae=""><linearGradient data-v-423bf9ae="" gradientTransform="rotate(25)" id="587ba899-8053-4dd2-9b5c-2fc9f1ee6bce" x1="0%" y1="0%" x2="100%" y2="0%"><stop data-v-423bf9ae="" offset="0%" style="stop-color: rgb(0, 21, 214); stop-opacity: 1;"></stop><stop data-v-423bf9ae="" offset="100%" style="stop-color: rgb(9, 137, 251); stop-opacity: 1;"></stop></linearGradient></defs><g data-v-423bf9ae="" id="625b35f9-3e74-4bac-81ae-588289f6cadc" transform="matrix(7.5,0,0,7.5,0,-15)" stroke="none" fill="url(#587ba899-8053-4dd2-9b5c-2fc9f1ee6bce)"><path d="M7.969 2L6 13.844 5.969 14h2.063l1.969-11.844.031-.156H7.969zM5 3.813l-.531.344-4 2.5L0 6.938v2.126l.469.281 4 2.5.531.344V9.814L2.094 8.001 5 6.188V3.813zm6 0v2.375l2.906 1.813L11 9.814v2.375l.531-.344 4-2.5.469-.281V6.938l-.469-.281-4-2.5L11 3.813z"></path></g><!----><g data-v-423bf9ae="" id="19ed3667-1aeb-49e2-9924-3f316f73bbbf" fill="#041F57" transform="matrix(0.7331374883651733,0,0,0.7331374883651733,139.72140502929688,57.88856506347656)"><path d="M0.75 3.64L0.38 3.64L0.38 3.08L3.86 3.08L3.86 3.64L3.50 3.64L3.50 3.64Q2.99 3.64 2.84 3.75L2.84 3.75L2.84 3.75Q2.71 3.84 2.70 4.25L2.70 4.25L2.70 6.91L7.25 6.91L7.25 4.14L7.25 4.14Q7.25 3.77 7.16 3.71L7.16 3.71L7.16 3.71Q7.05 3.64 6.52 3.64L6.52 3.64L5.93 3.64L5.92 3.08L9.47 3.08L9.47 3.64L9.08 3.64L9.08 3.64Q8.61 3.64 8.50 3.74L8.50 3.74L8.50 3.74Q8.39 3.83 8.39 4.22L8.39 4.22L8.39 11.29L8.39 11.29Q8.39 11.67 8.52 11.77L8.52 11.77L8.52 11.77Q8.68 11.87 9.23 11.87L9.23 11.87L9.70 11.87L9.69 12.41L6.20 12.41L6.19 11.87L6.60 11.87L6.60 11.87Q7.06 11.87 7.16 11.77L7.16 11.77L7.16 11.77Q7.25 11.67 7.25 11.25L7.25 11.25L7.25 7.58L2.70 7.58L2.70 11.25L2.70 11.25Q2.70 11.67 2.85 11.77L2.85 11.77L2.85 11.77Q3.01 11.87 3.71 11.87L3.71 11.87L4.12 11.87L4.09 12.41L0.51 12.41L0.49 11.87L0.85 11.87L0.85 11.87Q1.40 11.87 1.47 11.80L1.47 11.80L1.47 11.80Q1.57 11.70 1.57 11.25L1.57 11.25L1.57 4.09L1.57 4.09Q1.57 3.76 1.43 3.71L1.43 3.71L1.43 3.71Q1.26 3.64 0.75 3.64L0.75 3.64ZM17.72 5.35L17.22 5.33L17.22 5.33Q17.34 4.17 17.42 3.08L17.42 3.08L25.50 3.08L25.50 3.08Q25.42 4.13 25.40 4.53L25.40 4.53L25.40 4.53Q25.35 5.26 25.33 5.32L25.33 5.32L24.83 5.30L24.83 5.30Q24.92 4.34 24.92 4.16L24.92 4.16L24.92 4.16Q24.92 3.88 24.77 3.79L24.77 3.79L24.77 3.79Q24.60 3.69 24.20 3.69L24.20 3.69L22.59 3.69L22.59 3.69Q22.09 3.69 21.96 3.79L21.96 3.79L21.96 3.79Q21.87 3.87 21.86 4.36L21.86 4.36L21.86 11.22L21.86 11.22Q21.86 11.66 22.00 11.76L22.00 11.76L22.00 11.76Q22.16 11.87 22.67 11.87L22.67 11.87L23.24 11.87L23.25 12.41L19.56 12.40L19.56 11.87L19.78 11.87L19.78 11.87Q20.45 11.87 20.59 11.79L20.59 11.79L20.59 11.79Q20.73 11.70 20.73 11.28L20.73 11.28L20.73 4.48L20.73 4.48Q20.73 3.92 20.63 3.80L20.63 3.80L20.63 3.80Q20.54 3.69 20.11 3.69L20.11 3.69L18.64 3.69L18.64 3.69Q18.46 3.69 18.39 3.71L18.39 3.71L18.39 3.71Q18.32 3.72 18.21 3.72L18.21 3.72L18.21 3.72Q18.18 3.72 18.07 3.79L18.07 3.79L18.07 3.79Q17.99 3.84 17.96 3.86L17.96 3.86L17.96 3.86Q17.93 3.88 17.89 3.99L17.89 3.99L17.89 3.99Q17.86 4.05 17.83 4.14L17.83 4.14L17.83 4.14Q17.81 4.21 17.79 4.36L17.79 4.36L17.79 4.36Q17.76 4.59 17.76 4.61L17.76 4.61L17.76 4.61Q17.76 4.80 17.75 4.95L17.75 4.95L17.75 4.95Q17.75 5.02 17.74 5.15L17.74 5.15L17.74 5.15Q17.73 5.29 17.72 5.35L17.72 5.35ZM33.74 3.64L33.24 3.64L33.24 3.08L36.76 3.08L36.74 3.64L36.00 3.64L36.00 3.64Q35.67 3.64 35.67 3.82L35.67 3.82L35.67 3.82Q35.67 3.98 35.86 4.48L35.86 4.48L38.47 10.94L41.41 4.18L41.41 4.18Q41.47 3.97 41.48 3.92L41.48 3.92L41.48 3.92Q41.48 3.79 41.38 3.74L41.38 3.74L41.38 3.74Q41.28 3.68 41.14 3.65L41.14 3.65L41.14 3.65Q41.06 3.64 40.79 3.64L40.79 3.64L40.35 3.64L40.32 3.08L43.16 3.08L43.13 3.64L42.72 3.64L42.72 3.64Q42.40 3.64 42.25 3.83L42.25 3.83L42.25 3.83Q42.16 3.93 41.70 4.94L41.70 4.94L41.70 4.94Q41.49 5.46 41.42 5.57L41.42 5.57L38.29 12.63L38.05 12.63L34.80 4.73L34.80 4.73Q34.48 3.93 34.34 3.79L34.34 3.79L34.34 3.79Q34.18 3.63 33.74 3.64L33.74 3.64ZM51.39 3.64L50.89 3.64L50.91 3.08L54.50 3.08L54.50 3.64L53.86 3.64L53.86 3.64Q53.48 3.64 53.37 3.72L53.37 3.72L53.37 3.72Q53.26 3.80 53.26 4.16L53.26 4.16L53.26 11.22L53.26 11.22Q53.26 11.57 53.34 11.67L53.34 11.67L53.34 11.67Q53.43 11.77 53.72 11.77L53.72 11.77L53.72 11.77Q56.59 11.74 57.25 11.63L57.25 11.63L57.25 11.63Q57.46 11.61 57.54 11.39L57.54 11.39L57.54 11.39Q57.63 11.17 57.83 10.05L57.83 10.05L58.32 10.08L57.85 12.41L51.09 12.41L51.08 11.87L51.47 11.87L51.47 11.87Q51.97 11.87 52.04 11.80L52.04 11.80L52.04 11.80Q52.12 11.72 52.13 11.33L52.13 11.33L52.13 4.09L52.13 4.09Q52.13 3.80 51.97 3.72L51.97 3.72L51.97 3.72Q51.82 3.64 51.39 3.64L51.39 3.64ZM76.00 8.02L76.00 8.02L76.00 8.02Q76.00 6.86 76.47 5.83L76.47 5.83L76.47 5.83Q76.94 4.85 77.69 4.27L77.69 4.27L77.69 4.27Q78.44 3.69 79.33 3.37L79.33 3.37L79.33 3.37Q80.23 3.05 81.07 3.05L81.07 3.05L81.07 3.05Q81.94 3.05 82.61 3.16L82.61 3.16L82.61 3.16Q83.23 3.26 83.53 3.37L83.53 3.37L83.53 3.37Q83.84 3.48 83.87 3.48L83.87 3.48L83.87 3.48Q84.04 3.48 84.06 3.41L84.06 3.41L84.06 3.41Q84.09 3.33 84.09 3.09L84.09 3.09L84.09 2.97L84.62 2.97L84.62 2.97Q84.66 4.30 84.79 5.64L84.79 5.64L84.29 5.65L84.29 5.65Q84.26 5.40 84.25 5.26L84.25 5.26L84.25 5.26Q84.25 5.20 84.24 5.13L84.24 5.13L84.24 5.13Q84.23 5.07 84.23 5.02L84.23 5.02L84.23 5.02Q84.22 4.98 84.22 4.95L84.22 4.95L84.22 4.95Q84.19 4.84 84.19 4.74L84.19 4.74L84.19 4.74Q84.19 4.68 84.15 4.59L84.15 4.59L84.15 4.59Q84.15 4.57 84.12 4.55L84.12 4.55L84.12 4.55Q84.09 4.52 84.09 4.50L84.09 4.50L84.09 4.50Q84.06 4.44 83.99 4.41L83.99 4.41L83.99 4.41Q83.95 4.38 83.92 4.37L83.92 4.37L83.92 4.37Q83.90 4.36 83.87 4.35L83.87 4.35L83.87 4.35Q83.86 4.35 83.83 4.33L83.83 4.33L83.83 4.33Q83.81 4.31 83.77 4.29L83.77 4.29L83.77 4.29Q83.73 4.27 83.69 4.25L83.69 4.25L83.69 4.25Q83.46 4.16 83.43 4.14L83.43 4.14L83.43 4.14Q83.08 3.96 82.44 3.83L82.44 3.83L82.44 3.83Q81.77 3.71 81.11 3.71L81.11 3.71L81.11 3.71Q79.39 3.71 78.29 4.84L78.29 4.84L78.29 4.84Q77.18 5.99 77.19 7.62L77.19 7.62L77.19 7.62Q77.19 9.35 78.41 10.69L78.41 10.69L78.41 10.69Q79.61 12.02 81.43 12.02L81.43 12.02L81.43 12.02Q82.43 12.02 83.38 11.49L83.38 11.49L83.38 11.49Q84.33 10.94 84.36 10.58L84.36 10.58L84.40 9.41L84.89 9.41L84.81 11.45L84.81 11.45Q84.74 11.49 84.61 11.57L84.61 11.57L84.61 11.57Q84.55 11.60 84.09 11.85L84.09 11.85L84.09 11.85Q83.71 12.05 83.27 12.23L83.27 12.23L83.27 12.23Q82.91 12.39 82.26 12.51L82.26 12.51L82.26 12.51Q81.65 12.63 81.08 12.64L81.08 12.64L81.08 12.64Q78.70 12.64 77.34 11.39L77.34 11.39L77.34 11.39Q76.00 10.14 76.00 8.02ZM93.30 7.83L93.30 7.83L93.30 7.83Q93.30 6.62 93.71 5.68L93.71 5.68L93.71 5.68Q94.12 4.72 94.81 4.12L94.81 4.12L94.81 4.12Q95.50 3.51 96.37 3.19L96.37 3.19L96.37 3.19Q97.21 2.88 98.16 2.88L98.16 2.88L98.16 2.88Q99.42 2.88 100.47 3.40L100.47 3.40L100.47 3.40Q101.55 3.93 102.26 5.07L102.26 5.07L102.26 5.07Q102.96 6.17 102.96 7.75L102.96 7.75L102.96 7.75Q102.96 8.70 102.66 9.54L102.66 9.54L102.66 9.54Q102.35 10.38 101.74 11.10L101.74 11.10L101.74 11.10Q101.14 11.81 100.20 12.22L100.20 12.22L100.20 12.22Q99.24 12.63 98.05 12.64L98.05 12.64L98.05 12.64Q96.91 12.64 95.98 12.23L95.98 12.23L95.98 12.23Q95.04 11.83 94.48 11.14L94.48 11.14L94.48 11.14Q93.91 10.45 93.61 9.60L93.61 9.60L93.61 9.60Q93.30 8.72 93.30 7.83ZM94.56 7.38L94.56 7.38L94.56 7.38Q94.56 8.52 94.99 9.60L94.99 9.60L94.99 9.60Q95.40 10.64 96.33 11.33L96.33 11.33L96.33 11.33Q97.23 12.03 98.42 12.04L98.42 12.04L98.42 12.04Q99.80 12.04 100.73 11.01L100.73 11.01L100.73 11.01Q101.68 9.97 101.68 8.10L101.68 8.10L101.68 8.10Q101.68 5.99 100.52 4.72L100.52 4.72L100.52 4.72Q99.37 3.46 97.86 3.45L97.86 3.45L97.86 3.45Q97.34 3.45 96.80 3.65L96.80 3.65L96.80 3.65Q96.26 3.85 95.75 4.25L95.75 4.25L95.75 4.25Q95.20 4.68 94.88 5.48L94.88 5.48L94.88 5.48Q94.56 6.27 94.56 7.38ZM114.24 12.41L111.22 12.41L111.22 11.87L111.36 11.87L111.36 11.87Q111.95 11.87 112.06 11.77L112.06 11.77L112.06 11.77Q112.18 11.68 112.20 11.21L112.20 11.21L112.33 4.38L112.33 4.38Q112.33 4.35 112.33 4.28L112.33 4.28L112.33 4.28Q112.34 4.21 112.34 4.17L112.34 4.17L112.34 4.01L112.34 4.01Q112.34 3.76 112.27 3.71L112.27 3.71L112.27 3.71Q112.17 3.64 111.95 3.64L111.95 3.64L111.23 3.64L111.22 3.08L113.33 3.08L116.53 10.55L119.66 3.08L121.90 3.08L121.90 3.64L121.43 3.64L121.43 3.64Q120.98 3.64 120.85 3.71L120.85 3.71L120.85 3.71Q120.70 3.79 120.70 4.08L120.70 4.08L120.70 11.22L120.70 11.22Q120.70 11.68 120.81 11.77L120.81 11.77L120.81 11.77Q120.92 11.87 121.55 11.87L121.55 11.87L121.83 11.87L121.84 12.41L118.45 12.41L118.43 11.87L118.71 11.87L118.71 11.87Q119.32 11.87 119.44 11.77L119.44 11.77L119.44 11.77Q119.56 11.66 119.56 11.25L119.56 11.25L119.56 4.83L117.41 9.91L116.55 12.02L116.55 12.02Q116.42 12.37 116.37 12.44L116.37 12.44L116.37 12.44Q116.33 12.51 116.26 12.51L116.26 12.51L116.26 12.51Q116.16 12.51 115.71 11.52L115.71 11.52L112.90 5.01L112.84 11.39L112.84 11.39Q112.84 11.74 113.04 11.80L113.04 11.80L113.04 11.80Q113.28 11.87 114.24 11.87L114.24 11.87L114.24 12.41ZM133.29 12.41L129.57 12.41L129.57 11.87L130.01 11.87L130.01 11.87Q130.38 11.87 130.44 11.81L130.44 11.81L130.44 11.81Q130.50 11.74 130.51 11.46L130.51 11.46L130.51 4.14L130.51 4.14Q130.51 3.81 130.43 3.72L130.43 3.72L130.43 3.72Q130.34 3.64 129.98 3.64L129.98 3.64L129.61 3.64L129.62 3.08L132.51 3.08L132.51 3.08Q133.66 3.08 134.31 3.19L134.31 3.19L134.31 3.19Q134.91 3.28 135.38 3.68L135.38 3.68L135.38 3.68Q136.57 4.64 136.57 6.19L136.57 6.19L136.57 6.19Q136.57 7.23 135.80 7.98L135.80 7.98L135.80 7.98Q135.02 8.74 133.62 8.73L133.62 8.73L133.62 8.73Q133.44 8.73 133.03 8.70L133.03 8.70L133.03 8.70Q132.92 8.69 132.49 8.62L132.49 8.62L132.49 8.62Q132.16 8.55 132.06 8.54L132.06 8.54L132.06 8.54Q131.77 8.47 131.76 8.46L131.76 8.46L131.64 8.44L131.64 11.46L131.64 11.46Q131.64 11.74 131.77 11.81L131.77 11.81L131.77 11.81Q131.88 11.87 132.60 11.87L132.60 11.87L133.29 11.87L133.29 12.41ZM131.64 4.28L131.64 8.02L131.64 8.02Q131.99 8.29 132.96 8.29L132.96 8.29L132.96 8.29Q134.09 8.29 134.67 7.75L134.67 7.75L134.67 7.75Q135.26 7.21 135.26 6.16L135.26 6.16L135.26 6.16Q135.26 4.98 134.35 4.31L134.35 4.31L134.35 4.31Q133.45 3.64 132.06 3.64L132.06 3.64L132.06 3.64Q131.81 3.64 131.73 3.75L131.73 3.75L131.73 3.75Q131.65 3.84 131.64 4.28L131.64 4.28ZM145.13 3.64L144.55 3.64L144.56 3.08L148.07 3.08L148.07 3.64L147.84 3.64L147.84 3.64Q147.29 3.64 147.12 3.73L147.12 3.73L147.12 3.73Q146.99 3.81 146.99 4.28L146.99 4.28L146.99 11.22L146.99 11.22Q146.99 11.68 147.10 11.77L147.10 11.77L147.10 11.77Q147.21 11.87 147.74 11.87L147.74 11.87L148.29 11.87L148.30 12.41L144.72 12.41L144.70 11.87L145.07 11.87L145.07 11.87Q145.63 11.87 145.74 11.77L145.74 11.77L145.74 11.77Q145.85 11.67 145.85 11.25L145.85 11.25L145.85 4.14L145.85 4.14Q145.85 3.77 145.75 3.71L145.75 3.71L145.75 3.71Q145.64 3.64 145.13 3.64L145.13 3.64ZM156.53 3.64L156.04 3.64L156.05 3.08L159.64 3.08L159.64 3.64L159.00 3.64L159.00 3.64Q158.63 3.64 158.52 3.72L158.52 3.72L158.52 3.72Q158.40 3.80 158.40 4.16L158.40 4.16L158.40 11.22L158.40 11.22Q158.40 11.57 158.49 11.67L158.49 11.67L158.49 11.67Q158.57 11.77 158.87 11.77L158.87 11.77L158.87 11.77Q161.74 11.74 162.39 11.63L162.39 11.63L162.39 11.63Q162.61 11.61 162.69 11.39L162.69 11.39L162.69 11.39Q162.77 11.17 162.97 10.05L162.97 10.05L163.46 10.08L163.00 12.41L156.24 12.41L156.22 11.87L156.61 11.87L156.61 11.87Q157.12 11.87 157.19 11.80L157.19 11.80L157.19 11.80Q157.27 11.72 157.27 11.33L157.27 11.33L157.27 4.09L157.27 4.09Q157.27 3.80 157.12 3.72L157.12 3.72L157.12 3.72Q156.97 3.64 156.53 3.64L156.53 3.64ZM171.21 3.64L171.19 3.08L178.40 3.08L178.40 3.08Q178.42 4.14 178.47 5.28L178.47 5.28L177.93 5.30L177.93 5.30Q177.91 4.66 177.86 4.25L177.86 4.25L177.86 4.25Q177.82 3.89 177.76 3.80L177.76 3.80L177.76 3.80Q177.71 3.71 177.59 3.69L177.59 3.69L177.59 3.69Q177.50 3.68 176.91 3.68L176.91 3.68L174.53 3.68L174.53 3.68Q173.98 3.68 173.84 3.77L173.84 3.77L173.84 3.77Q173.71 3.86 173.71 4.33L173.71 4.33L173.71 6.28L173.71 6.28Q173.71 6.69 173.77 6.76L173.77 6.76L173.77 6.76Q173.84 6.84 174.18 6.84L174.18 6.84L176.29 6.84L176.29 6.84Q176.65 6.84 176.74 6.73L176.74 6.73L176.74 6.73Q176.82 6.63 176.83 6.14L176.83 6.14L176.83 5.61L177.34 5.63L177.34 8.97L176.83 8.97L176.83 8.24L176.83 8.24Q176.83 7.66 176.75 7.57L176.75 7.57L176.75 7.57Q176.67 7.46 176.32 7.46L176.32 7.46L174.22 7.46L174.22 7.46Q173.89 7.46 173.80 7.54L173.80 7.54L173.80 7.54Q173.71 7.63 173.71 7.89L173.71 7.89L173.71 11.20L173.71 11.20Q173.71 11.57 173.80 11.67L173.80 11.67L173.80 11.67Q173.89 11.77 174.16 11.77L174.16 11.77L174.16 11.77Q177.08 11.75 177.60 11.69L177.60 11.69L177.60 11.69Q178.12 11.63 178.21 11.38L178.21 11.38L178.21 11.36L178.22 11.35L178.45 10.17L178.92 10.25L178.58 12.41L171.47 12.41L171.47 11.87L171.84 11.87L171.84 11.87Q172.40 11.87 172.48 11.80L172.48 11.80L172.48 11.80Q172.58 11.72 172.58 11.33L172.58 11.33L172.58 4.24L172.58 4.24Q172.58 3.82 172.43 3.73L172.43 3.73L172.43 3.73Q172.26 3.64 171.60 3.64L171.60 3.64L171.21 3.64ZM187.13 3.64L186.74 3.64L186.76 3.08L189.98 3.08L189.98 3.08Q191.11 3.08 191.71 3.21L191.71 3.21L191.71 3.21Q192.36 3.37 192.82 3.75L192.82 3.75L192.82 3.75Q193.83 4.57 193.83 5.71L193.83 5.71L193.83 5.71Q193.83 6.43 193.35 7.04L193.35 7.04L193.35 7.04Q192.86 7.66 191.83 7.92L191.83 7.92L194.52 11.49L194.52 11.49Q194.82 11.87 195.12 11.87L195.12 11.87L195.72 11.87L195.75 12.41L193.72 12.41L190.72 8.10L190.55 8.10L190.55 8.10Q190.51 8.10 190.46 8.11L190.46 8.11L190.46 8.11Q190.40 8.11 190.39 8.11L190.39 8.11L190.39 8.11Q189.51 8.11 189.11 8.03L189.11 8.03L189.11 11.46L189.11 11.46Q189.11 11.76 189.25 11.81L189.25 11.81L189.25 11.81Q189.38 11.87 190.08 11.87L190.08 11.87L190.79 11.87L190.76 12.41L187.04 12.41L187.04 11.87L187.36 11.87L187.36 11.87Q187.82 11.87 187.89 11.81L187.89 11.81L187.89 11.81Q187.97 11.74 187.97 11.46L187.97 11.46L187.97 4.14L187.97 4.14Q187.97 3.82 187.78 3.73L187.78 3.73L187.78 3.73Q187.56 3.64 187.13 3.64L187.13 3.64ZM189.11 4.28L189.11 7.57L189.11 7.57Q189.29 7.70 190.00 7.71L190.00 7.71L190.00 7.71Q191.28 7.71 191.86 7.27L191.86 7.27L191.86 7.27Q192.45 6.84 192.45 5.92L192.45 5.92L192.45 5.92Q192.45 4.92 191.67 4.27L191.67 4.27L191.67 4.27Q190.91 3.64 189.53 3.64L189.53 3.64L189.53 3.64Q189.28 3.64 189.20 3.75L189.20 3.75L189.20 3.75Q189.12 3.84 189.11 4.28L189.11 4.28Z"></path></g></svg>