<svg data-v-423bf9ae="" xmlns="http://www.w3.org/2000/svg" viewBox="0 0 80 60" class="icon"><!----><!----><!----><!----><g data-v-423bf9ae="" id="4e88f3b3-57e7-45cb-95a4-95926e1b2738" transform="matrix(5,0,0,5,0,-10)" stroke="none" fill="white"><path d="M7.969 2L6 13.844 5.969 14h2.063l1.969-11.844.031-.156H7.969zM5 3.813l-.531.344-4 2.5L0 6.938v2.126l.469.281 4 2.5.531.344V9.814L2.094 8.001 5 6.188V3.813zm6 0v2.375l2.906 1.813L11 9.814v2.375l.531-.344 4-2.5.469-.281V6.938l-.469-.281-4-2.5L11 3.813z"></path></g><!----></svg>